<mxfile host="app.diagrams.net" modified="2023-10-25T07:07:10.493Z" agent="Mozilla/5.0 (Macintosh; Intel Mac OS X 10_15_7) AppleWebKit/537.36 (KHTML, like Gecko) Chrome/118.0.0.0 Safari/537.36" version="22.0.7" etag="hgiJVHwkYdTLS6PAc8Mq" type="github">
  <diagram name="Page-1" id="fqOwUuaoLS2B61Loj_uW">
    <mxGraphModel>
      <root>
        <mxCell id="0" />
        <mxCell id="1" parent="0" />
      </root>
    </mxGraphModel>
  </diagram>
</mxfile>
